# xmcd CD database file
#
# Track frame offsets:
#	150
#	24114
#	49620
#	71227
#	93432
#	112202
#	132555
#	154147
#	169322
#
# Disc length: 2524 seconds
#
# Revision: 0
# Processed by: cddbd v1.5.2PL0 Copyright (c) Steve Scherf et al.
# Submitted via: CDex 1.70beta2
#
DISCID=7c09da09
DTITLE=David Sanborn - Here and Gone
DYEAR=2008
DGENRE=Jazz
TTITLE0=St. Louis Blues
TTITLE1=Brother Ray
TTITLE2=I'm Gonna Move To The Outskirts Of Town
TTITLE3=Basin Street Blues
TTITLE4=Stoney Lonesome
TTITLE5=I Believe To My Soul
TTITLE6=What Will I Tell My Heart?
TTITLE7=Please Send Me Someone To Love
TTITLE8=I've Got News For You
EXTD=YEAR: 2008
EXTT0=
EXTT1=
EXTT2=
EXTT3=
EXTT4=
EXTT5=
EXTT6=
EXTT7=
EXTT8=
PLAYORDER=
